<mxfile host="app.diagrams.net" modified="2023-11-22T15:19:47.930Z" agent="Mozilla/5.0 (X11; Linux x86_64; rv:109.0) Gecko/20100101 Firefox/116.0" etag="bhkyL1WhL1MrOUAVqDDk" version="21.8.2" type="github">
  <diagram name="Page-1" id="F1rEXNmpFSnReahVf858">
    <mxGraphModel dx="1434" dy="790" grid="1" gridSize="10" guides="1" tooltips="1" connect="1" arrows="1" fold="1" page="1" pageScale="1" pageWidth="850" pageHeight="1100" math="0" shadow="0">
      <root>
        <mxCell id="0" />
        <mxCell id="1" parent="0" />
        <mxCell id="DlsgC9h63GQsjv_AqGC0-18" style="edgeStyle=orthogonalEdgeStyle;rounded=0;orthogonalLoop=1;jettySize=auto;html=1;entryX=0.5;entryY=1;entryDx=0;entryDy=0;" edge="1" parent="1" source="DlsgC9h63GQsjv_AqGC0-4" target="DlsgC9h63GQsjv_AqGC0-8">
          <mxGeometry relative="1" as="geometry">
            <Array as="points">
              <mxPoint x="350" y="458" />
              <mxPoint x="257" y="458" />
            </Array>
          </mxGeometry>
        </mxCell>
        <mxCell id="DlsgC9h63GQsjv_AqGC0-19" value="Использует" style="edgeLabel;html=1;align=center;verticalAlign=middle;resizable=0;points=[];" vertex="1" connectable="0" parent="DlsgC9h63GQsjv_AqGC0-18">
          <mxGeometry x="0.0716" y="-1" relative="1" as="geometry">
            <mxPoint as="offset" />
          </mxGeometry>
        </mxCell>
        <mxCell id="DlsgC9h63GQsjv_AqGC0-4" value="&amp;lt;&amp;lt;system&amp;gt;&amp;gt;&lt;br&gt;&lt;div&gt;delivery_bug&lt;/div&gt;&lt;div&gt;Позволяет пользоваелям заказывать товары&lt;br&gt;&lt;/div&gt;" style="rounded=1;whiteSpace=wrap;html=1;fillColor=#d5e8d4;strokeColor=#82b366;" vertex="1" parent="1">
          <mxGeometry x="333" y="505" width="185" height="75" as="geometry" />
        </mxCell>
        <mxCell id="DlsgC9h63GQsjv_AqGC0-6" style="edgeStyle=orthogonalEdgeStyle;rounded=0;orthogonalLoop=1;jettySize=auto;html=1;" edge="1" parent="1" source="DlsgC9h63GQsjv_AqGC0-5" target="DlsgC9h63GQsjv_AqGC0-4">
          <mxGeometry relative="1" as="geometry">
            <Array as="points">
              <mxPoint x="578" y="458" />
              <mxPoint x="500" y="458" />
            </Array>
          </mxGeometry>
        </mxCell>
        <mxCell id="DlsgC9h63GQsjv_AqGC0-14" value="&lt;div&gt;Использует&lt;/div&gt;" style="edgeLabel;html=1;align=center;verticalAlign=middle;resizable=0;points=[];" vertex="1" connectable="0" parent="DlsgC9h63GQsjv_AqGC0-6">
          <mxGeometry x="0.1111" y="-2" relative="1" as="geometry">
            <mxPoint x="42" as="offset" />
          </mxGeometry>
        </mxCell>
        <mxCell id="DlsgC9h63GQsjv_AqGC0-5" value="&amp;lt;&amp;lt;person&amp;gt;&amp;gt;&lt;br&gt;Пользователь&lt;br&gt;Клиент" style="rounded=1;whiteSpace=wrap;html=1;fillColor=#dae8fc;strokeColor=#6c8ebf;" vertex="1" parent="1">
          <mxGeometry x="518" y="350" width="120" height="60" as="geometry" />
        </mxCell>
        <mxCell id="DlsgC9h63GQsjv_AqGC0-8" value="&amp;lt;&amp;lt;external_system&amp;gt;&amp;gt;&lt;br&gt;Oauth2.0&lt;br&gt;Сервис аутентификации" style="rounded=1;whiteSpace=wrap;html=1;fillColor=#e1d5e7;strokeColor=#9673a6;" vertex="1" parent="1">
          <mxGeometry x="180" y="350" width="153" height="60" as="geometry" />
        </mxCell>
      </root>
    </mxGraphModel>
  </diagram>
</mxfile>
